<?xml version="1.0" encoding="iso-8859-1"?>
<!-- Generator: Adobe Illustrator 19.0.0, SVG Export Plug-In . SVG Version: 6.00 Build 0)  -->
<svg version="1.1" id="Layer_1" xmlns="http://www.w3.org/2000/svg" xmlns:xlink="http://www.w3.org/1999/xlink" x="0px" y="0px"
	 viewBox="0 0 512 512" style="enable-background:new 0 0 512 512;" xml:space="preserve">
<g transform="translate(1 1)">
	<g>
		<g>
			<path d="M488.813,323.267c11.947,0,22.187-10.24,22.187-22.187v-23.893C511,265.24,500.76,255,488.813,255h-11.947v-13.653
				c0-29.867-24.747-54.613-54.613-54.613H143.241c-2.739-13.964-12.103-25.29-24.799-30.695L260.973,13.507
				c3.413-3.413,3.413-8.533,0-11.947s-8.533-3.413-11.947,0L97.833,152.754c-19.304,1.536-34.636,15.429-38.274,33.979h-5.945
				C23.747,186.733-1,211.48-1,241.347v180.907c0,29.867,24.747,54.613,54.613,54.613H75.8v17.067C75.8,503.32,83.48,511,92.867,511
				H127c9.387,0,17.067-7.68,17.067-17.067v-17.067H331.8v17.067c0,9.387,7.68,17.067,17.067,17.067H383
				c9.387,0,17.067-7.68,17.067-17.067v-17.067h22.187c29.867,0,54.613-24.747,54.613-54.613V408.6h11.947
				c11.947,0,22.187-10.24,22.187-22.187V362.52c0-11.947-10.24-22.187-22.187-22.187h-11.947v-17.067H488.813z M488.813,272.067
				c2.56,0,5.12,2.56,5.12,5.12v23.893c0,2.56-2.56,5.12-5.12,5.12h-11.947v-34.133H488.813z M102.253,169.667
				c11.093,0,20.48,6.827,23.893,17.067h-48.64C80.92,176.493,91.16,169.667,102.253,169.667z M127,493.933H92.867v-17.067H127
				V493.933z M383,493.933h-34.133v-17.067H383V493.933z M459.8,422.253c0,20.48-17.067,37.547-37.547,37.547h-30.72h-51.2h-204.8
				h-51.2h-30.72c-20.48,0-37.547-17.067-37.547-37.547V241.347c0-20.48,17.067-37.547,37.547-37.547h13.653h68.267h286.72
				c20.48,0,37.547,17.067,37.547,37.547v22.187v51.2v34.133v51.2V422.253z M488.813,357.4c2.56,0,5.12,2.56,5.12,5.12v23.893
				c0,2.56-2.56,5.12-5.12,5.12h-11.947V357.4H488.813z"/>
			<path d="M398.36,237.933h-48.64c-15.36,0-27.307,12.8-27.307,27.307v133.12c0,15.36,12.8,27.307,27.307,27.307h48.64
				c15.36,0,27.307-11.947,27.307-26.453V265.24C425.667,249.88,412.867,237.933,398.36,237.933z M340.333,323.267h69.12v17.067
				h-69.12V323.267z M340.333,306.2v-17.067h69.12V306.2H340.333z M340.333,357.4h69.12v17.067h-69.12V357.4z M350.573,255h48.64
				c5.973,0,10.24,5.12,10.24,10.24v6.827h-69.12v-6.827C340.333,259.267,345.453,255,350.573,255z M399.213,409.453h-48.64
				c-5.973,0-10.24-5.12-10.24-10.24v-7.68h69.12v7.68C409.453,405.187,404.333,409.453,399.213,409.453z"/>
			<path d="M109.933,237.933h-51.2c-5.12,0-8.533,3.413-8.533,8.533v51.2v51.2v51.2c0,5.12,3.413,8.533,8.533,8.533h51.2
				c5.12,0,8.533-3.413,8.533-8.533v-51.2v-51.2v-51.2C118.467,241.347,115.053,237.933,109.933,237.933z M67.267,306.2H101.4
				v34.133H67.267V306.2z M67.267,255H101.4v34.133H67.267V255z M101.4,391.533H67.267V357.4H101.4V391.533z"/>
			<path d="M237.933,272.067h-17.067v-34.133c0-5.12-3.413-8.533-8.533-8.533c-5.12,0-8.533,3.413-8.533,8.533v34.133h-17.067
				c-5.12,0-8.533,3.413-8.533,8.533v34.133c0,5.12,3.413,8.533,8.533,8.533H203.8v93.867c0,5.12,3.413,8.533,8.533,8.533
				c5.12,0,8.533-3.413,8.533-8.533v-93.867h17.067c5.12,0,8.533-3.413,8.533-8.533V280.6
				C246.467,275.48,243.053,272.067,237.933,272.067z M229.4,306.2h-34.133v-17.067H229.4V306.2z"/>
		</g>
	</g>
</g>
<g>
</g>
<g>
</g>
<g>
</g>
<g>
</g>
<g>
</g>
<g>
</g>
<g>
</g>
<g>
</g>
<g>
</g>
<g>
</g>
<g>
</g>
<g>
</g>
<g>
</g>
<g>
</g>
<g>
</g>
</svg>
