<svg id="e9fCvmeF82I1" xmlns="http://www.w3.org/2000/svg" xmlns:xlink="http://www.w3.org/1999/xlink" viewBox="0 0 374.95 151.43" shape-rendering="geometricPrecision" text-rendering="geometricPrecision"><g id="e9fCvmeF82I2" transform="matrix(0.1 0 0 -0.1 0 469)"><path id="e9fCvmeF82I3" d="M1812,3265C1750,3251,1664,3225,1622,3206C1580,3187,1518,3164,1485,3155C1452,3145,1400,3125,1369,3109C1338,3094,1210,3040,1084,2989C958,2939,849,2893,840,2889C815,2875,708,2843,663,2835C639,2831,620,2824,620,2819C620,2814,623,2810,628,2810C648,2811,775,2844,865,2873C920,2890,970,2905,975,2905C981,2906,1004,2916,1027,2928C1077,2954,1087,2956,1070,2935C1063,2926,1081,2935,1110,2955C1170,2995,1199,3001,1157,2965C1142,2951,1133,2940,1138,2940C1143,2940,1155,2949,1165,2960C1189,2986,1243,3020,1270,3025C1287,3028,1311,3039,1412,3091C1422,3096,1451,3101,1477,3101C1518,3102,1520,3103,1495,3109C1470,3114,1468,3117,1483,3123C1493,3127,1510,3130,1521,3130C1531,3130,1540,3134,1540,3138C1540,3148,1657,3190,1683,3190C1693,3190,1699,3194,1696,3199C1688,3211,1714,3220,1754,3220C1772,3220,1790,3224,1796,3230C1801,3235,1843,3245,1888,3251C2027,3270,2242,3235,2361,3175C2413,3148,2442,3141,2400,3165C2365,3185,2397,3184,2445,3164C2470,3154,2479,3153,2474,3161C2469,3170,2472,3171,2484,3167C2494,3163,2523,3157,2548,3154C2573,3151,2609,3142,2628,3134C2657,3122,2661,3122,2651,3134C2641,3146,2644,3147,2672,3140C2690,3136,2725,3125,2749,3116C2773,3107,2811,3100,2834,3101L2875,3102L2838,3111C2817,3116,2783,3124,2763,3128C2734,3135,2749,3137,2828,3137C2894,3137,2926,3133,2918,3127C2908,3121,2910,3120,2922,3123C2956,3135,3010,3142,3010,3136C3010,3132,3000,3125,2988,3119C2966,3110,2966,3110,2990,3115C3004,3118,3029,3123,3045,3125L3075,3130L3045,3115C3019,3101,3018,3100,3040,3105C3054,3109,3085,3113,3110,3116L3155,3120L3125,3105L3095,3090L3130,3096C3149,3099,3173,3104,3183,3106C3192,3109,3200,3107,3200,3102C3200,3096,3211,3090,3223,3086C3258,3078,3299,3042,3329,2995C3343,2973,3358,2953,3362,2952C3367,2951,3386,2942,3405,2933C3437,2918,3441,2918,3458,2933C3483,2956,3493,2954,3485,2928C3478,2905,3478,2905,3493,2925C3508,2945,3509,2945,3519,2920C3524,2906,3529,2901,3529,2908C3530,2921,3560,2925,3560,2911C3560,2907,3571,2905,3585,2908C3614,2913,3617,2904,3593,2876C3578,2858,3579,2858,3601,2878C3633,2906,3643,2906,3635,2878C3629,2857,3630,2856,3643,2873C3658,2891,3690,2897,3690,2881C3690,2876,3684,2869,3678,2867C3668,2863,3668,2861,3677,2861C3683,2860,3692,2865,3695,2870C3704,2884,3720,2882,3716,2868C3715,2861,3715,2858,3717,2863C3723,2873,3760,2872,3760,2861C3760,2856,3769,2854,3781,2857C3796,2861,3803,2857,3807,2841C3810,2830,3817,2820,3822,2820C3827,2820,3828,2825,3824,2831C3819,2840,3825,2841,3846,2836C3900,2823,3943,2782,3908,2779C3901,2778,3909,2775,3925,2771C3942,2768,3955,2760,3955,2754C3955,2748,3980,2720,4010,2692C4040,2663,4059,2640,4053,2640C4046,2640,4040,2636,4040,2630C4040,2625,4047,2623,4055,2626C4063,2630,4078,2629,4088,2625C4104,2619,4104,2617,4085,2604C4066,2589,4067,2589,4094,2596C4118,2602,4122,2600,4117,2587C4113,2575,4115,2573,4127,2577C4139,2582,4142,2579,4138,2568C4134,2559,4137,2553,4143,2554C4150,2554,4156,2552,4157,2547C4159,2543,4169,2530,4180,2518L4201,2496L4178,2487C4156,2479,4158,2475,4223,2414C4274,2365,4297,2350,4320,2350C4382,2350,4359,2312,4291,2303C4259,2299,4249,2301,4244,2315C4239,2328,4235,2329,4228,2318C4221,2308,4217,2309,4206,2323C4197,2335,4191,2337,4188,2329C4185,2321,4180,2321,4169,2332C4161,2340,4149,2345,4142,2342C4135,2340,4130,2348,4129,2362C4129,2375,4126,2379,4123,2373C4114,2350,4100,2359,4099,2388C4098,2404,4096,2408,4093,2398C4088,2377,4070,2374,4070,2394C4070,2401,4061,2410,4049,2413C4033,2417,4030,2424,4035,2442C4039,2458,4038,2461,4032,2451C4020,2433,3998,2447,4003,2468C4006,2479,3988,2502,3955,2533C3903,2580,3826,2612,3758,2614C3744,2615,3734,2618,3736,2621C3738,2625,3716,2630,3687,2633C3657,2637,3634,2636,3632,2630C3627,2616,3567,2630,3553,2648C3543,2660,3540,2661,3540,2650C3540,2641,3531,2645,3513,2661C3498,2674,3492,2677,3499,2668C3510,2653,3510,2650,3497,2650C3479,2650,3457,2683,3467,2694C3470,2697,3465,2700,3455,2700C3441,2700,3440,2697,3450,2685C3460,2673,3460,2670,3450,2670C3444,2670,3436,2679,3433,2690C3426,2715,3380,2717,3285,2695C3249,2686,3214,2682,3208,2686C3203,2690,3194,2687,3190,2680C3185,2672,3158,2667,3119,2666C3069,2665,3043,2658,3004,2636C2936,2599,2887,2553,2894,2535C2901,2516,2860,2514,2842,2532C2833,2541,2830,2541,2830,2532C2830,2518,2963,2383,3007,2352C3029,2337,3048,2332,3064,2336C3077,2339,3091,2337,3094,2331C3098,2324,3093,2320,3081,2320C3069,2320,3060,2315,3060,2310C3060,2304,3077,2302,3103,2305C3134,2309,3140,2308,3125,2301C3108,2293,3111,2291,3143,2291C3181,2290,3193,2275,3163,2266C3153,2264,3162,2264,3183,2267C3203,2270,3220,2268,3220,2263C3220,2257,3238,2248,3260,2241C3304,2228,3319,2212,3299,2199C3289,2193,3298,2190,3325,2189C3364,2188,3364,2187,3335,2180C3307,2173,3309,2172,3350,2171C3392,2170,3397,2159,3360,2147C3352,2145,3356,2144,3370,2146C3384,2147,3402,2145,3410,2139C3423,2132,3423,2130,3410,2129C3402,2129,3410,2124,3429,2119C3447,2113,3460,2106,3457,2103C3453,2100,3457,2091,3465,2083C3485,2064,3483,2032,3460,1990C3441,1956,3441,1956,3440,1981C3440,1996,3431,2018,3419,2031L3398,2055L3414,2030C3461,1957,3402,1912,3323,1960C3305,1971,3290,1977,3290,1975C3290,1970,3250,1990,3160,2040C3073,2088,2981,2155,2993,2162C3000,2167,2995,2170,2978,2170C2950,2170,2940,2185,2963,2193C2969,2195,2966,2196,2956,2194C2946,2192,2909,2211,2875,2236C2800,2289,2752,2310,2706,2310C2676,2310,2669,2314,2664,2335C2659,2357,2652,2360,2616,2360C2594,2360,2564,2357,2550,2353L2525,2346L2555,2340C2572,2336,2592,2337,2600,2341C2611,2346,2616,2343,2617,2332C2618,2318,2608,2314,2564,2312C2521,2310,2510,2312,2510,2325C2510,2333,2502,2340,2493,2339C2482,2339,2480,2336,2488,2333C2510,2324,2501,2310,2474,2310C2459,2310,2441,2318,2434,2328C2421,2344,2420,2344,2426,2328C2433,2306,2412,2304,2404,2325C2400,2333,2393,2340,2388,2340C2382,2340,2384,2332,2391,2323C2404,2308,2402,2307,2371,2313C2353,2317,2327,2320,2313,2320C2295,2320,2285,2329,2274,2356C2266,2376,2256,2390,2254,2387C2251,2384,2254,2372,2260,2360C2274,2335,2269,2327,2246,2336C2237,2339,2230,2353,2230,2365C2230,2378,2226,2392,2220,2395C2214,2399,2213,2389,2217,2368C2223,2338,2222,2336,2206,2349C2197,2357,2190,2373,2191,2384C2194,2422,2190,2441,2181,2436C2168,2428,2137,2467,2146,2481C2150,2488,2149,2491,2142,2486C2136,2483,2119,2497,2103,2519C2073,2561,2040,2588,2040,2570C2040,2565,2045,2560,2050,2560C2056,2560,2060,2550,2060,2538C2060,2522,2063,2519,2068,2528C2074,2537,2085,2527,2105,2495C2121,2470,2145,2443,2157,2435C2179,2420,2190,2370,2171,2370C2161,2370,2100,2430,1992,2543C1913,2626,1852,2653,1735,2654C1684,2655,1648,2650,1635,2642C1616,2629,1616,2629,1634,2635C1670,2646,1770,2653,1770,2644C1770,2621,1728,2569,1715,2574C1707,2577,1700,2575,1700,2570C1700,2546,1737,2564,1762,2600C1777,2622,1795,2640,1801,2640C1807,2640,1798,2621,1780,2598C1751,2557,1750,2555,1770,2552C1781,2550,1790,2545,1790,2540C1790,2536,1764,2538,1733,2545C1694,2554,1671,2555,1660,2548C1647,2540,1647,2539,1661,2543C1670,2546,1697,2544,1720,2538C1790,2520,1743,2509,1649,2521C1601,2527,1564,2527,1562,2522C1561,2518,1545,2515,1527,2517C1501,2519,1499,2518,1519,2512C1542,2505,1541,2504,1502,2485C1480,2474,1464,2461,1467,2456C1471,2451,1441,2449,1394,2452C1320,2458,1318,2457,1368,2448C1396,2442,1420,2434,1420,2430C1420,2427,1394,2425,1363,2426C1331,2427,1321,2426,1340,2423C1400,2416,1406,2412,1383,2390C1371,2380,1336,2367,1304,2361L1245,2351L1298,2354C1341,2357,1348,2355,1339,2344C1332,2335,1304,2329,1266,2328L1205,2326L1259,2323C1310,2319,1312,2318,1292,2304C1277,2294,1255,2291,1218,2294L1165,2299L1219,2289C1276,2277,1274,2262,1215,2259L1185,2258L1215,2250L1245,2242L1210,2240C1191,2238,1157,2238,1135,2238L1095,2239L1129,2230C1165,2221,1231,2223,1248,2234C1261,2242,1361,2219,1355,2209C1352,2205,1333,2206,1313,2210C1292,2215,1274,2217,1272,2215C1269,2213,1281,2208,1296,2205C1351,2193,1356,2190,1340,2180C1332,2175,1307,2179,1276,2190C1248,2200,1187,2210,1140,2213C1093,2215,1066,2214,1080,2210C1094,2205,1130,2202,1161,2201C1205,2200,1302,2178,1318,2164C1326,2158,1265,2100,1251,2100C1239,2100,1238,2098,1248,2091C1259,2085,1258,2081,1247,2072C1237,2064,1223,2064,1196,2071C1144,2085,1140,2076,1191,2061C1222,2051,1229,2046,1221,2036C1215,2029,1198,2025,1182,2027C1157,2030,1156,2030,1178,2021C1207,2008,1206,2003,1168,1980C1150,1969,1138,1960,1142,1960C1146,1960,1133,1943,1113,1923L1076,1887L1011,1898C926,1912,922,1906,1002,1886L1065,1871L1008,1875C977,1878,943,1883,933,1886C919,1891,918,1890,930,1882C938,1876,966,1868,992,1865C1018,1861,1040,1853,1040,1848C1040,1841,1026,1840,1003,1843C897,1860,894,1861,920,1851C934,1846,963,1838,985,1834L1025,1826L985,1820C963,1816,955,1812,968,1811C1003,1809,989,1786,949,1779L915,1773L951,1771C976,1770,990,1775,994,1785C997,1793,1008,1800,1018,1800C1036,1800,1257,2019,1365,2145C1516,2320,1554,2357,1582,2352C1592,2350,1600,2354,1600,2360C1600,2366,1596,2368,1590,2365C1585,2362,1580,2362,1580,2367C1582,2397,1786,2508,1888,2534C1964,2554,1973,2550,2032,2473C2085,2403,2156,2347,2230,2318C2279,2298,2307,2296,2505,2293C2630,2291,2740,2285,2760,2278C2806,2263,2853,2234,2920,2176C2950,2150,3009,2108,3050,2082C3091,2057,3127,2035,3129,2033C3132,2031,3124,2016,3112,2000C3081,1958,3085,1934,3129,1889C3168,1849,3169,1849,3198,1864C3214,1872,3241,1895,3259,1915C3281,1941,3295,1949,3303,1942C3310,1937,3339,1927,3368,1919C3416,1907,3422,1908,3448,1927C3484,1954,3500,1986,3499,2035C3499,2083,3487,2107,3438,2149C3407,2176,3402,2185,3410,2200C3426,2229,3422,2269,3396,2359L3372,2443L3413,2403C3436,2381,3476,2349,3501,2332C3526,2315,3566,2275,3590,2243C3614,2211,3648,2172,3666,2155C3684,2139,3712,2098,3728,2065C3771,1979,3803,1950,3855,1950C3882,1950,3902,1944,3911,1934C3929,1912,3995,1880,4022,1880C4081,1880,4109,1939,4074,1989C4051,2021,4010,2133,3994,2210C3975,2296,3945,2358,3871,2468C3838,2518,3810,2562,3810,2565C3810,2568,3822,2567,3838,2564C3854,2560,3914,2509,3985,2441C4125,2305,4167,2280,4261,2280C4296,2280,4336,2286,4350,2293C4395,2316,4387,2337,4302,2424C4258,2468,4218,2513,4213,2523C4208,2533,4132,2613,4044,2701C3913,2833,3879,2862,3845,2870C3584,2933,3421,2994,3302,3074C3177,3158,3165,3161,2850,3170C2559,3179,2556,3180,2235,3254C2072,3292,1952,3295,1812,3265ZM3420,2650C3420,2645,3415,2640,3409,2640C3404,2640,3401,2636,3405,2631C3408,2626,3404,2602,3396,2579C3388,2555,3382,2534,3384,2532C3388,2529,3422,2607,3426,2628C3430,2648,3439,2655,3448,2645C3452,2641,3449,2635,3442,2633C3436,2630,3433,2624,3436,2619C3439,2613,3436,2603,3430,2595C3423,2587,3421,2580,3424,2580C3428,2580,3428,2574,3423,2568C3419,2561,3415,2544,3414,2530C3413,2516,3414,2513,3417,2523C3419,2532,3425,2538,3430,2535C3434,2532,3437,2538,3436,2547C3436,2557,3444,2566,3455,2568C3470,2571,3472,2569,3464,2559C3458,2551,3450,2532,3446,2515C3439,2486,3439,2486,3454,2505C3472,2529,3475,2518,3458,2487C3448,2467,3448,2466,3463,2479C3473,2486,3480,2501,3480,2511C3480,2530,3497,2546,3507,2536C3510,2533,3507,2524,3500,2515C3485,2497,3496,2495,3514,2513C3521,2520,3525,2530,3523,2537C3521,2543,3523,2551,3529,2554C3548,2566,3533,2507,3499,2437C3492,2422,3495,2423,3511,2443C3527,2464,3535,2468,3545,2460C3555,2452,3560,2452,3566,2461C3570,2468,3569,2471,3564,2468C3559,2465,3549,2468,3543,2476C3535,2484,3534,2491,3540,2495C3546,2498,3550,2496,3550,2491C3550,2485,3557,2480,3565,2480C3573,2480,3580,2471,3580,2460C3580,2449,3576,2440,3570,2440C3565,2440,3560,2435,3560,2428C3560,2422,3569,2425,3580,2435C3602,2455,3608,2442,3588,2421C3577,2410,3579,2410,3598,2419C3624,2433,3627,2423,3603,2403C3587,2390,3587,2390,3608,2400C3627,2410,3635,2408,3652,2394C3672,2376,3672,2375,3650,2358C3625,2338,3631,2334,3662,2351C3673,2357,3684,2359,3687,2357C3694,2350,3652,2328,3615,2320C3588,2314,3574,2322,3485,2389C3408,2448,3377,2479,3349,2525C3329,2558,3306,2586,3297,2588C3285,2591,3289,2599,3315,2622C3350,2652,3385,2655,3374,2625C3369,2614,3372,2611,3384,2616C3393,2619,3397,2626,3394,2631C3388,2642,3398,2660,3411,2660C3416,2660,3420,2656,3420,2650ZM3010,2585C3001,2562,3002,2559,3015,2564C3024,2567,3028,2566,3025,2560C3022,2554,3008,2553,2995,2556C2983,2559,2970,2558,2967,2553C2964,2548,2977,2543,2996,2543C3024,2542,3033,2547,3040,2565C3045,2577,3056,2590,3064,2593C3085,2601,3084,2591,3063,2574C3046,2561,3046,2560,3063,2566C3073,2570,3086,2583,3091,2596C3095,2609,3105,2620,3111,2620C3119,2620,3119,2616,3110,2605C3095,2587,3111,2585,3128,2602C3134,2608,3143,2610,3147,2606C3152,2602,3147,2593,3138,2587C3129,2580,3113,2569,3103,2562C3093,2555,3106,2560,3133,2574C3159,2587,3180,2594,3180,2589C3180,2584,3169,2574,3155,2568C3141,2562,3130,2552,3130,2547C3130,2542,3137,2543,3145,2550C3168,2569,3175,2554,3156,2525C3147,2511,3144,2500,3150,2500C3156,2500,3165,2511,3170,2525C3182,2556,3194,2558,3184,2528C3178,2507,3178,2507,3195,2523C3217,2546,3225,2538,3210,2508C3199,2488,3199,2487,3213,2500C3221,2508,3231,2526,3235,2538C3241,2559,3240,2560,3223,2552C3205,2542,3174,2561,3187,2574C3198,2584,3211,2580,3204,2569C3200,2562,3204,2560,3216,2564C3242,2572,3267,2555,3254,2538C3248,2531,3238,2512,3231,2495C3216,2460,3235,2473,3254,2511C3260,2523,3272,2536,3280,2538C3291,2542,3290,2537,3276,2521C3265,2510,3261,2500,3265,2500C3269,2500,3265,2491,3255,2480C3237,2460,3247,2451,3266,2470C3278,2482,3313,2472,3304,2459C3296,2445,3278,2448,3285,2463C3289,2469,3283,2464,3271,2450C3260,2436,3249,2417,3247,2408C3243,2393,3245,2392,3261,2401C3288,2415,3285,2396,3258,2377C3242,2366,3240,2362,3251,2364C3271,2366,3303,2391,3295,2398C3289,2404,3309,2430,3321,2430C3326,2430,3319,2410,3306,2385C3292,2360,3285,2340,3290,2340C3295,2340,3302,2345,3305,2350C3308,2356,3316,2360,3322,2360C3328,2360,3327,2353,3319,2343C3307,2328,3307,2327,3323,2333C3368,2351,3373,2351,3345,2331C3329,2320,3308,2310,3300,2309C3291,2309,3290,2307,3297,2304C3303,2301,3323,2306,3340,2315C3358,2324,3374,2329,3377,2326C3380,2324,3360,2310,3333,2296C3307,2282,3289,2271,3293,2270C3297,2270,3318,2279,3340,2290C3384,2312,3390,2314,3390,2302C3390,2297,3372,2285,3350,2275C3300,2252,3304,2243,3355,2264C3406,2286,3413,2283,3368,2259C3331,2240,3280,2241,3280,2261C3280,2266,3272,2270,3262,2270C3240,2270,3203,2296,3212,2305C3215,2309,3234,2313,3254,2314C3274,2316,3294,2321,3298,2325C3302,2329,3294,2329,3281,2325C3265,2320,3260,2321,3264,2329C3269,2336,3262,2338,3243,2335C3217,2330,3213,2335,3181,2399C3145,2475,3094,2534,3073,2526C3066,2523,3060,2525,3060,2530C3060,2536,3065,2540,3072,2540C3078,2540,3080,2543,3077,2546C3073,2550,3065,2548,3058,2542C3050,2536,3016,2532,2980,2532C2920,2533,2918,2534,2938,2548C2950,2556,2960,2568,2960,2576C2960,2583,2965,2592,2972,2596C2980,2601,2981,2598,2977,2587C2974,2577,2975,2570,2981,2570C2986,2570,2995,2582,3001,2596C3006,2611,3013,2621,3016,2618C3018,2615,3016,2600,3010,2585ZM3578,2610C3584,2610,3590,2598,3590,2584L3590,2558L3610,2581C3627,2602,3629,2603,3630,2586C3630,2571,3633,2570,3645,2580C3654,2588,3660,2589,3660,2582C3660,2576,3650,2564,3638,2554C3624,2544,3621,2540,3632,2543C3641,2546,3651,2544,3653,2537C3656,2528,3661,2528,3671,2538C3681,2547,3681,2550,3671,2550C3664,2550,3662,2555,3665,2560C3675,2576,3686,2571,3687,2550C3688,2539,3680,2525,3669,2519C3657,2513,3651,2506,3653,2503C3656,2501,3670,2506,3684,2515C3713,2534,3720,2525,3693,2504C3676,2492,3677,2491,3698,2493C3720,2494,3724,2500,3721,2533C3720,2542,3723,2550,3729,2550C3735,2550,3738,2533,3736,2510C3733,2477,3734,2471,3745,2480C3752,2486,3756,2499,3753,2509C3750,2519,3753,2531,3760,2535C3777,2545,3785,2533,3771,2516C3762,2505,3762,2501,3772,2497C3781,2493,3778,2485,3760,2469C3742,2453,3740,2448,3754,2453C3768,2459,3771,2456,3766,2445C3759,2426,3774,2426,3790,2445C3799,2456,3799,2460,3791,2460C3784,2460,3782,2465,3785,2470C3788,2476,3796,2480,3801,2480C3807,2480,3809,2476,3805,2471C3802,2466,3804,2459,3809,2456C3814,2453,3821,2457,3824,2466C3827,2475,3835,2478,3842,2474C3850,2469,3844,2459,3824,2443L3795,2418L3828,2434C3871,2456,3869,2437,3825,2410C3806,2398,3790,2386,3790,2383C3790,2381,3805,2388,3824,2399C3842,2411,3860,2420,3864,2420C3878,2420,3857,2398,3826,2379C3809,2369,3800,2360,3805,2360C3811,2360,3829,2369,3845,2380C3887,2408,3901,2404,3867,2375C3835,2346,3839,2342,3876,2366C3889,2375,3904,2379,3908,2375C3915,2369,3901,2355,3849,2317C3836,2307,3846,2311,3873,2326C3927,2356,3938,2343,3885,2310C3834,2278,3842,2274,3895,2304C3927,2323,3940,2327,3940,2317C3940,2309,3918,2291,3890,2276C3825,2240,3825,2232,3891,2266C3919,2280,3943,2290,3944,2288C3945,2286,3952,2277,3959,2267C3971,2252,3967,2248,3921,2229C3859,2203,3858,2195,3919,2216C3975,2235,3983,2227,3936,2199C3890,2172,3890,2167,3935,2186C3979,2204,3981,2189,3938,2166C3920,2157,3914,2152,3925,2156C3975,2172,3980,2172,3980,2157C3980,2149,3966,2137,3950,2130C3933,2123,3921,2115,3924,2113C3926,2110,3938,2114,3950,2120C3962,2126,3974,2129,3977,2127C3980,2124,3965,2112,3943,2101C3922,2090,3909,2081,3913,2080C3917,2080,3934,2087,3951,2095C3967,2104,3986,2108,3992,2103C4000,2099,3994,2092,3975,2083L3945,2070L3979,2076C4029,2085,4009,2065,3949,2045C3921,2036,3901,2026,3903,2024C3905,2022,3932,2029,3964,2040C3995,2050,4018,2055,4015,2050C4011,2044,4014,2040,4019,2040C4038,2040,4031,2024,4008,2011C3986,2000,3986,2000,4013,2005C4058,2014,4044,1993,3996,1981C3972,1975,3945,1968,3936,1964C3927,1961,3920,1962,3920,1967C3920,1973,3935,1982,3953,1988C3984,1999,3984,1999,3955,1994C3939,1990,3919,1987,3911,1986C3895,1985,3860,2039,3857,2069C3856,2081,3853,2090,3849,2090C3843,2090,3817,2164,3815,2185C3814,2200,3737,2320,3681,2395C3664,2417,3647,2441,3644,2449C3640,2456,3626,2474,3614,2488C3601,2502,3590,2518,3590,2525C3590,2531,3579,2547,3565,2560C3551,2573,3540,2590,3540,2598C3540,2610,3537,2610,3525,2600C3512,2589,3511,2590,3516,2604C3521,2616,3530,2620,3544,2616C3555,2613,3571,2610,3578,2610ZM1697,2495C1695,2490,1677,2476,1657,2464C1627,2448,1608,2444,1562,2448C1531,2450,1508,2450,1511,2446C1514,2443,1535,2439,1558,2438C1608,2436,1613,2424,1569,2415C1546,2410,1541,2406,1551,2399C1560,2393,1548,2390,1515,2389C1486,2388,1477,2385,1492,2383C1516,2379,1518,2377,1507,2359C1501,2349,1489,2340,1482,2340C1475,2340,1472,2336,1475,2330C1478,2325,1477,2320,1471,2320C1466,2320,1454,2313,1445,2304C1433,2291,1418,2289,1375,2295C1345,2298,1320,2306,1320,2311C1320,2317,1339,2319,1368,2316C1417,2310,1416,2314,1366,2325L1337,2331L1386,2375C1413,2399,1438,2419,1442,2420C1446,2420,1463,2434,1480,2450C1497,2467,1519,2480,1529,2480C1539,2480,1550,2486,1553,2494C1559,2510,1702,2511,1697,2495ZM3105,2490C3118,2479,3194,2310,3188,2305C3180,2298,3041,2391,2994,2435C2919,2506,2922,2514,3016,2506C3059,2503,3099,2495,3105,2490ZM3700,2331C3700,2327,3680,2312,3656,2299C3594,2267,3606,2263,3669,2294C3726,2323,3738,2314,3688,2281C3649,2257,3658,2253,3701,2276C3735,2293,3756,2285,3727,2266C3687,2242,3677,2230,3708,2245C3758,2269,3772,2256,3723,2231C3667,2203,3668,2196,3725,2220C3762,2236,3770,2237,3770,2225C3770,2217,3764,2210,3757,2210C3750,2210,3735,2203,3724,2195C3706,2181,3707,2181,3733,2190C3794,2212,3799,2192,3740,2165L3700,2147L3665,2186C3646,2207,3621,2243,3610,2265L3590,2304L3635,2316C3660,2322,3683,2330,3687,2333C3696,2342,3700,2342,3700,2331Z" transform="matrix(1 0 0 1 -620 1404.77026)" fill="rgb(202, 202, 202)" stroke="none" stroke-width="1"/></g></svg>