<svg id="eAQD0zdeJU71" xmlns="http://www.w3.org/2000/svg" xmlns:xlink="http://www.w3.org/1999/xlink" viewBox="0 0 370.26 215.62" shape-rendering="geometricPrecision" text-rendering="geometricPrecision"><g id="eAQD0zdeJU72" transform="matrix(0.1 0 0 -0.1 0 469)"><path id="eAQD0zdeJU73" d="M8150,3485C8131,3477,8032,3457,7930,3440C7559,3377,7206,3264,6865,3099L6735,3036L6535,3029C6425,3025,6324,3019,6310,3015C6215,2989,6114,2952,6050,2920C5894,2842,5751,2793,5630,2775C5567,2766,5512,2756,5508,2754C5505,2752,5428,2746,5338,2740C5043,2722,5000,2716,4939,2682C4909,2665,4845,2640,4795,2625C4672,2589,4652,2581,4598,2544C4572,2526,4537,2506,4520,2499C4471,2477,4488,2412,4552,2379C4607,2351,4677,2354,4767,2390C4814,2409,4874,2424,4933,2430C4984,2436,5064,2447,5111,2456C5190,2470,5205,2470,5282,2456C5329,2447,5396,2440,5431,2440C5497,2440,5530,2425,5609,2362L5632,2343L5614,2287C5598,2236,5591,2227,5524,2181C5484,2153,5446,2130,5440,2130C5434,2130,5409,2116,5384,2100C5346,2073,5340,2064,5340,2034C5340,1963,5386,1899,5448,1885L5476,1879L5473,1740C5470,1618,5472,1595,5491,1548C5503,1519,5516,1466,5520,1430C5526,1387,5534,1361,5547,1352C5572,1333,5659,1342,5676,1365C5688,1381,5690,1381,5705,1366C5725,1346,5789,1345,5816,1365C5852,1389,5870,1442,5870,1519C5870,1571,5876,1602,5890,1630C5901,1652,5916,1696,5924,1729C5935,1776,5949,1802,5988,1847C6015,1879,6048,1926,6061,1951C6082,1992,6088,1997,6108,1989C6137,1978,6136,1956,6104,1862C6081,1795,6079,1777,6086,1720C6090,1684,6095,1624,6096,1585C6097,1547,6098,1509,6099,1502C6101,1483,6162,1450,6197,1450C6262,1450,6330,1554,6301,1608C6283,1641,6288,1717,6310,1758C6321,1778,6339,1818,6351,1847C6371,1898,6372,1898,6423,1905C6542,1921,6692,1984,6799,2063C6830,2085,6905,2151,6965,2209C7084,2323,7142,2361,7239,2385C7320,2406,7462,2399,7655,2364C7798,2338,8038,2321,8130,2329C8177,2334,8206,2338,8195,2339C8184,2339,8132,2342,8080,2345C7883,2355,7833,2359,7806,2370C7791,2375,7769,2378,7757,2375C7737,2370,7661,2386,7616,2405C7602,2411,7599,2410,7605,2401C7611,2391,7608,2390,7592,2399C7581,2405,7570,2414,7568,2418C7567,2423,7532,2443,7492,2463C7434,2493,7416,2498,7402,2489C7386,2479,7386,2479,7402,2484C7411,2487,7420,2486,7422,2482C7424,2478,7453,2462,7488,2446C7522,2430,7550,2413,7550,2409C7550,2398,7486,2415,7454,2436C7428,2453,7426,2453,7439,2437C7451,2422,7451,2420,7435,2426C7422,2431,7419,2430,7424,2421C7430,2412,7424,2411,7403,2417C7388,2421,7357,2424,7335,2423C7313,2422,7270,2430,7238,2440C7178,2460,7141,2456,7083,2427C7065,2417,7043,2410,7033,2409C7022,2409,7020,2406,7028,2403C7034,2401,7037,2394,7034,2388C7029,2380,7043,2379,7076,2383C7102,2386,7126,2393,7128,2399C7130,2405,7148,2413,7168,2417L7205,2424L7175,2432C7154,2437,7162,2438,7199,2435C7229,2433,7258,2425,7264,2419C7272,2410,7267,2409,7242,2414C7224,2417,7211,2416,7214,2411C7217,2406,7208,2399,7192,2396C7154,2387,7077,2348,7067,2333C7063,2326,7053,2320,7045,2320C7027,2320,6917,2279,6922,2274C6924,2272,6950,2280,6979,2291C7009,2302,7035,2309,7037,2306C7044,2299,7001,2279,6950,2263L6905,2250L6945,2256C7002,2264,6980,2249,6912,2233C6864,2222,6862,2221,6898,2224C6921,2226,6938,2225,6935,2220C6926,2206,6862,2199,6794,2206L6726,2213L6765,2247C6786,2265,6800,2280,6795,2280C6791,2280,6765,2259,6738,2234C6693,2192,6691,2188,6715,2194C6731,2198,6779,2198,6824,2194L6905,2186L6855,2178C6828,2174,6783,2172,6755,2175C6711,2179,6709,2178,6735,2169C6752,2164,6791,2162,6823,2165C6863,2169,6880,2168,6875,2161C6871,2154,6824,2150,6757,2149C6668,2148,6653,2146,6685,2139C6707,2134,6752,2133,6785,2136C6832,2141,6843,2139,6833,2130C6824,2121,6786,2119,6688,2122C6615,2124,6566,2123,6580,2119C6594,2115,6649,2112,6703,2111C6823,2110,6827,2091,6707,2088L6625,2086L6700,2080C6770,2075,6773,2074,6737,2066C6716,2061,6679,2060,6655,2063C6630,2065,6613,2064,6616,2059C6619,2054,6645,2050,6673,2049C6712,2048,6719,2046,6700,2041C6686,2037,6676,2028,6678,2022C6679,2014,6662,2010,6628,2009C6581,2008,6579,2007,6610,2001C6664,1991,6628,1977,6567,1984C6513,1990,6513,1987,6565,1975C6594,1968,6594,1967,6540,1948C6510,1938,6455,1926,6418,1923C6354,1917,6318,1900,6323,1876C6324,1871,6314,1865,6300,1863L6276,1859L6305,1890L6335,1921L6307,1916C6292,1913,6280,1916,6280,1922C6280,1928,6274,1928,6265,1920C6252,1909,6252,1906,6267,1895C6277,1887,6281,1878,6277,1873C6272,1869,6262,1874,6255,1884C6244,1898,6243,1908,6251,1923C6259,1937,6259,1941,6251,1936C6245,1932,6240,1934,6240,1939C6240,1945,6236,1950,6230,1950C6225,1950,6223,1943,6226,1935C6230,1927,6227,1913,6220,1905C6209,1892,6210,1891,6222,1895C6234,1900,6237,1895,6235,1876C6232,1855,6235,1852,6257,1856C6272,1859,6279,1857,6275,1850C6271,1844,6276,1843,6286,1847C6299,1852,6301,1850,6295,1840C6290,1831,6291,1829,6299,1834C6305,1838,6308,1846,6305,1851C6302,1856,6306,1857,6314,1854C6339,1844,6317,1815,6258,1781C6229,1764,6210,1750,6215,1750C6221,1750,6234,1756,6245,1763C6256,1771,6274,1780,6285,1783L6305,1790L6285,1775C6274,1766,6265,1750,6265,1738C6265,1726,6258,1715,6250,1713C6237,1709,6237,1710,6250,1719C6261,1727,6262,1730,6252,1730C6245,1730,6242,1734,6245,1740C6248,1746,6244,1747,6235,1743C6223,1739,6222,1735,6230,1730C6239,1724,6239,1721,6229,1717C6218,1713,6218,1711,6228,1711C6235,1710,6238,1705,6234,1699C6230,1691,6235,1690,6251,1695C6272,1702,6273,1701,6262,1688C6255,1679,6236,1667,6219,1660C6203,1653,6191,1645,6194,1643C6196,1641,6212,1646,6229,1654C6263,1672,6270,1673,6270,1663C6270,1658,6256,1647,6239,1638C6222,1628,6212,1616,6215,1610C6218,1605,6216,1600,6209,1600C6202,1600,6199,1597,6202,1594C6206,1591,6218,1594,6230,1600C6241,1606,6256,1609,6263,1607C6270,1605,6258,1596,6238,1587C6217,1578,6200,1569,6200,1566C6200,1563,6216,1568,6236,1576C6285,1597,6291,1586,6243,1561C6222,1550,6210,1541,6215,1541C6221,1541,6236,1547,6250,1555C6286,1575,6296,1573,6275,1550C6265,1539,6261,1530,6266,1530C6271,1530,6264,1520,6250,1509C6236,1498,6232,1492,6240,1496C6253,1503,6253,1501,6241,1487C6223,1464,6158,1464,6138,1488C6128,1499,6120,1538,6115,1595C6100,1768,6103,1803,6150,1952C6156,1971,6154,1983,6144,1991C6136,1997,6130,2010,6130,2019C6130,2033,6128,2033,6120,2020C6112,2008,6110,2008,6109,2025C6109,2036,6106,2039,6103,2032C6097,2017,6080,2026,6084,2043C6085,2050,6085,2052,6083,2048C6073,2030,6059,2042,6064,2063C6067,2075,6067,2079,6064,2073C6054,2051,6038,2059,6045,2083C6050,2100,6049,2102,6041,2090C6032,2077,6030,2078,6030,2095C6030,2110,6028,2112,6021,2101C6014,2091,6011,2090,6005,2100C6000,2108,6004,2119,6016,2127C6042,2147,6153,2205,6165,2205C6171,2205,6181,2209,6189,2214C6196,2219,6205,2219,6209,2214C6216,2204,6317,2197,6452,2196C6499,2195,6533,2192,6527,2188C6520,2184,6501,2180,6483,2180C6466,2180,6449,2176,6446,2172C6436,2155,6546,2178,6625,2209C6721,2246,6812,2301,6835,2336C6848,2356,6837,2351,6779,2311C6738,2282,6678,2251,6641,2239C6562,2214,6378,2201,6356,2219C6349,2225,6335,2228,6326,2224C6300,2214,6308,2228,6336,2243C6353,2252,6359,2260,6351,2264C6345,2268,6340,2266,6340,2260C6340,2254,6336,2251,6331,2254C6326,2257,6306,2253,6286,2245C6266,2236,6250,2234,6250,2240C6250,2245,6260,2252,6273,2255C6285,2259,6300,2271,6305,2282C6311,2294,6321,2306,6329,2308C6337,2311,6340,2308,6336,2301C6326,2286,6345,2287,6358,2303C6377,2326,6327,2317,6296,2293C6280,2280,6264,2270,6259,2270C6255,2270,6244,2267,6234,2263C6221,2258,6219,2260,6225,2271C6230,2279,6221,2274,6207,2261C6192,2247,6177,2240,6173,2243C6170,2247,6160,2244,6152,2237C6139,2227,6138,2228,6149,2249C6158,2265,6164,2269,6170,2261C6175,2253,6182,2257,6194,2274C6203,2288,6214,2299,6218,2297C6229,2294,6300,2357,6293,2363C6290,2366,6297,2375,6309,2382C6321,2389,6330,2399,6330,2404C6330,2409,6320,2404,6307,2392C6294,2380,6279,2370,6273,2370C6267,2370,6241,2346,6216,2318C6174,2270,6151,2261,6185,2306C6207,2335,6203,2346,6180,2317C6169,2303,6160,2289,6160,2285C6160,2266,6101,2206,6066,2188C6043,2177,5994,2148,5957,2124C5920,2100,5888,2080,5887,2080C5885,2080,5883,2090,5883,2102C5881,2118,5883,2121,5889,2112C5900,2093,5911,2120,5903,2149C5899,2163,5902,2170,5913,2170C5921,2170,5933,2177,5940,2185C5966,2216,5971,2198,5946,2165C5931,2146,5923,2130,5927,2130C5931,2130,5950,2153,5968,2181C5986,2209,6004,2229,6007,2227C6010,2224,6002,2207,5989,2189C5976,2171,5972,2160,5978,2164C5985,2168,6002,2189,6016,2211C6029,2232,6048,2250,6057,2250C6071,2250,6069,2246,6050,2225C6037,2211,6029,2198,6032,2195C6034,2192,6051,2208,6069,2231C6087,2253,6105,2269,6108,2266C6111,2263,6105,2251,6095,2240C6085,2229,6082,2220,6087,2220C6093,2220,6109,2237,6121,2258C6153,2309,6156,2318,6134,2298C6124,2289,6103,2278,6087,2275C6064,2269,6061,2270,6066,2286C6069,2297,6064,2293,6055,2278C6040,2251,6012,2237,6025,2263C6029,2269,6023,2265,6013,2254C6003,2242,5956,2207,5908,2176C5860,2145,5818,2116,5815,2110C5811,2104,5805,2102,5800,2105C5795,2108,5786,2100,5779,2088C5772,2075,5764,2063,5761,2060C5750,2052,5709,1978,5718,1984C5722,1986,5742,2011,5760,2039C5801,2098,5822,2108,5790,2053C5769,2017,5769,2016,5789,2040C5803,2057,5810,2060,5810,2050C5810,2041,5819,2048,5830,2065C5841,2082,5850,2100,5850,2105C5849,2111,5842,2102,5834,2087C5825,2071,5816,2061,5813,2064C5805,2072,5840,2121,5849,2115C5854,2112,5861,2117,5864,2126C5868,2135,5873,2140,5876,2137C5889,2124,5824,2026,5809,2036C5804,2039,5800,2037,5800,2031C5800,2014,5667,1931,5615,1915C5553,1897,5490,1895,5490,1913C5490,1921,5486,1920,5480,1910C5471,1897,5470,1897,5470,1910C5470,1922,5468,1922,5461,1911C5454,1901,5449,1903,5435,1921C5424,1936,5420,1939,5423,1928C5431,1904,5428,1905,5397,1934C5382,1948,5375,1962,5380,1965C5386,1968,5390,1967,5390,1961C5390,1956,5400,1953,5411,1955C5438,1960,5449,1970,5428,1970C5420,1970,5403,1979,5391,1989C5370,2008,5369,2010,5385,2042C5400,2073,5400,2074,5385,2055L5368,2035L5372,2055C5375,2074,5460,2129,5488,2130C5494,2130,5500,2120,5501,2108C5502,2088,5503,2089,5510,2114C5524,2161,5557,2186,5677,2244C5762,2286,5807,2315,5852,2357C5919,2422,6047,2577,6082,2636C6094,2658,6111,2680,6120,2687C6128,2694,6130,2700,6124,2700C6111,2700,6080,2667,6080,2653C6080,2647,6067,2630,6050,2617C6034,2603,6020,2587,6020,2581C6020,2563,6002,2569,5997,2588C5995,2597,5994,2594,5994,2580C5995,2544,5976,2540,5968,2575C5963,2596,5962,2593,5966,2562C5969,2532,5966,2514,5955,2504C5937,2485,5920,2494,5919,2523C5918,2541,5917,2541,5913,2527C5910,2517,5913,2503,5919,2496C5936,2475,5921,2451,5879,2429C5838,2409,5827,2397,5858,2406C5869,2410,5866,2405,5850,2391C5824,2370,5809,2364,5811,2378C5814,2398,5809,2411,5800,2405C5794,2401,5792,2395,5795,2390C5798,2385,5795,2378,5789,2374C5781,2370,5780,2371,5784,2378C5788,2385,5786,2390,5779,2390C5772,2390,5774,2398,5785,2410C5813,2441,5795,2434,5754,2398L5716,2365L5734,2395L5752,2425L5727,2396C5713,2379,5702,2364,5702,2361C5704,2342,5696,2342,5661,2360C5639,2371,5592,2402,5556,2429C5520,2457,5490,2476,5490,2472C5490,2468,5486,2471,5481,2479C5473,2491,5469,2492,5455,2480C5442,2469,5436,2470,5417,2489C5386,2517,5372,2516,5396,2488C5410,2471,5411,2468,5398,2479C5389,2486,5377,2489,5371,2486C5366,2483,5351,2489,5339,2500C5326,2511,5319,2519,5324,2520C5329,2520,5343,2512,5354,2503C5375,2485,5375,2485,5356,2508C5345,2520,5342,2530,5348,2530C5354,2530,5361,2526,5365,2520C5368,2515,5377,2513,5386,2517C5394,2520,5413,2512,5428,2499C5453,2477,5454,2476,5436,2498C5415,2523,5417,2524,5457,2510C5483,2501,5484,2501,5466,2515C5446,2530,5435,2532,5344,2534C5308,2535,5285,2541,5269,2555L5245,2575L5264,2553C5289,2523,5274,2523,5241,2553L5215,2575L5234,2553C5254,2529,5243,2521,5222,2542C5215,2549,5210,2552,5210,2549C5210,2546,5224,2531,5242,2514C5260,2498,5268,2493,5261,2503C5237,2534,5255,2531,5286,2498C5302,2481,5309,2470,5303,2474C5284,2485,5248,2492,5221,2491C5207,2490,5187,2498,5176,2509C5155,2527,5100,2543,5100,2531C5100,2521,5057,2524,5041,2534C5031,2541,5029,2540,5035,2530C5041,2520,5039,2518,5027,2523C5019,2526,5000,2526,4985,2522L4959,2515L4992,2491C5022,2469,5023,2468,5006,2488C4987,2510,4987,2510,5006,2510C5017,2510,5031,2501,5038,2490C5045,2479,5046,2470,5041,2470C5036,2470,5025,2468,5017,2464C5009,2461,4989,2471,4971,2485C4954,2500,4940,2507,4940,2502C4940,2497,4950,2486,4963,2477C4975,2469,4982,2459,4979,2456C4976,2453,4956,2461,4935,2475C4915,2489,4895,2499,4892,2496C4890,2493,4895,2488,4904,2484C4913,2481,4920,2472,4920,2464C4920,2453,4913,2451,4893,2456C4877,2460,4863,2463,4860,2462C4828,2462,4821,2458,4826,2445C4832,2430,4812,2425,4765,2428C4748,2430,4747,2428,4760,2419C4772,2411,4768,2410,4745,2414C4729,2417,4721,2417,4728,2414C4734,2411,4738,2404,4734,2399C4731,2394,4721,2394,4709,2400C4697,2407,4690,2407,4690,2401C4690,2396,4672,2393,4650,2395C4628,2397,4610,2395,4610,2391C4610,2384,4590,2383,4558,2389C4546,2391,4510,2429,4510,2439C4510,2444,4525,2453,4544,2460C4562,2466,4586,2480,4596,2492L4615,2513L4585,2493C4548,2467,4510,2455,4510,2469C4510,2475,4514,2480,4519,2480C4524,2480,4552,2496,4581,2515C4621,2543,4635,2548,4643,2538C4649,2528,4650,2529,4647,2542C4641,2561,4680,2579,4770,2600C4800,2607,4857,2627,4897,2645C4936,2663,4971,2675,4974,2672C4977,2669,4980,2672,4980,2678C4980,2684,4987,2687,4995,2684C5003,2680,5010,2682,5010,2688C5010,2694,5059,2701,5128,2704C5367,2717,5533,2732,5579,2746C5598,2751,5601,2750,5595,2740C5590,2732,5596,2733,5611,2743C5638,2763,5675,2766,5664,2748C5660,2742,5667,2744,5681,2753C5714,2777,5730,2774,5700,2749L5675,2729L5700,2741C5714,2748,5729,2753,5734,2752C5739,2750,5754,2759,5768,2772C5791,2793,5793,2793,5786,2775C5781,2759,5802,2782,5802,2782C5802,2782,5850,2816,5895,2830C5934,2842,5982,2863,6003,2877C6051,2907,6205,2967,6287,2986C6321,2994,6381,3002,6420,3004L6492,3009L6469,2982L6445,2955L6476,2983C6506,3010,6538,3020,6524,2999C6519,2991,6523,2991,6538,2999C6569,3015,6589,3012,6566,2995C6555,2987,6550,2980,6556,2980C6561,2980,6574,2987,6584,2995C6611,3015,6626,3014,6609,2993C6597,2978,6598,2978,6622,2994C6637,3004,6657,3010,6667,3008C6677,3005,6707,3012,6734,3022C6780,3040,6782,3040,6776,3023C6772,3010,6776,3012,6790,3028C6801,3041,6815,3053,6822,3054C6829,3055,6855,3068,6880,3082C6905,3096,6961,3123,7005,3141C7049,3158,7091,3177,7097,3183C7104,3188,7116,3190,7124,3187C7132,3184,7140,3186,7142,3191C7144,3197,7157,3203,7172,3203C7186,3204,7196,3208,7194,3212C7188,3221,7249,3235,7290,3233C7320,3231,7321,3232,7300,3238C7277,3245,7276,3246,7295,3253C7305,3258,7337,3259,7365,3257C7392,3255,7403,3255,7388,3257C7372,3259,7360,3265,7360,3271C7360,3280,7390,3284,7445,3282C7469,3281,7471,3282,7456,3288C7420,3303,7460,3314,7575,3321C7669,3326,7675,3327,7620,3330L7555,3333L7605,3340C7633,3344,7651,3348,7645,3350C7628,3354,7692,3368,7738,3369C7761,3369,7780,3375,7780,3380C7780,3386,7799,3390,7823,3390C7846,3390,7883,3397,7905,3404C7927,3412,7981,3426,8024,3434C8067,3443,8126,3462,8154,3475C8209,3501,8207,3508,8150,3485ZM5981,2037C5968,2021,5968,2020,5983,2026C6014,2037,6001,2013,5970,2000C5953,1993,5941,1985,5944,1983C5946,1980,5958,1983,5969,1990C5992,2002,5997,1991,5978,1971C5967,1960,5969,1960,5987,1969C6000,1975,6007,1986,6004,1994C5998,2009,6038,2042,6052,2034C6057,2031,6052,2021,6043,2012C6033,2003,6029,1998,6034,2003C6050,2015,6060,2011,6054,1996C6051,1988,6035,1976,6019,1970C6003,1963,5991,1955,5994,1953C5996,1950,6007,1953,6019,1959C6038,1970,6038,1969,6025,1943C6017,1928,6001,1910,5988,1902C5972,1893,5971,1890,5984,1895C5999,1899,6001,1898,5992,1887C5985,1879,5983,1871,5986,1867C5989,1864,5982,1864,5969,1867C5954,1871,5949,1870,5954,1862C5958,1855,5948,1844,5928,1835C5904,1824,5902,1822,5920,1826C5939,1830,5942,1829,5930,1821C5909,1806,5890,1808,5856,1825C5840,1834,5825,1838,5823,1836C5820,1834,5828,1827,5839,1820C5866,1806,5865,1796,5835,1780C5821,1773,5812,1765,5815,1762C5817,1759,5831,1765,5844,1774C5885,1800,5888,1792,5850,1758C5812,1725,5826,1729,5876,1766L5908,1789L5908,1765C5908,1752,5900,1738,5892,1735C5878,1730,5878,1728,5890,1720C5900,1714,5901,1710,5893,1710C5886,1710,5883,1703,5886,1695C5890,1687,5888,1680,5882,1680C5877,1680,5873,1672,5874,1663C5875,1651,5858,1638,5820,1622L5765,1599L5808,1605C5857,1611,5861,1601,5823,1570L5795,1549L5827,1565C5853,1577,5858,1578,5854,1566C5851,1559,5839,1547,5827,1541L5805,1530L5828,1536C5840,1539,5850,1537,5850,1532C5850,1527,5840,1518,5828,1512C5807,1501,5807,1501,5835,1506L5865,1512L5840,1490C5823,1475,5821,1470,5833,1474C5852,1480,5858,1456,5840,1445C5834,1441,5832,1435,5835,1430C5838,1426,5827,1420,5812,1417C5797,1414,5773,1409,5758,1406C5741,1402,5730,1404,5730,1410C5730,1416,5725,1418,5719,1414C5713,1411,5712,1404,5717,1399C5732,1384,5774,1383,5788,1397C5805,1413,5823,1414,5818,1398C5816,1392,5798,1381,5779,1375C5737,1360,5696,1381,5705,1411C5717,1447,5711,1537,5696,1574C5681,1609,5682,1618,5710,1733C5727,1800,5740,1866,5739,1880C5738,1918,5745,1943,5758,1948C5767,1951,5768,1945,5760,1926C5746,1887,5754,1894,5794,1954C5819,1992,5852,2022,5907,2059L5985,2111L5991,2083C5994,2065,5991,2048,5981,2037ZM5717,1923C5717,1903,5682,1860,5666,1860C5661,1860,5669,1874,5686,1892C5709,1917,5704,1915,5664,1882C5607,1834,5585,1827,5621,1867C5636,1885,5638,1889,5625,1878C5614,1869,5601,1860,5595,1858C5590,1856,5585,1840,5585,1823C5584,1790,5584,1790,5609,1806C5623,1815,5650,1834,5668,1847C5686,1861,5704,1870,5706,1867C5709,1864,5685,1843,5653,1819C5621,1796,5591,1773,5585,1767C5569,1752,5612,1776,5649,1804C5668,1818,5688,1830,5692,1830C5711,1830,5697,1813,5655,1787C5607,1756,5599,1747,5628,1756C5639,1760,5637,1755,5620,1740C5593,1716,5609,1722,5653,1752C5668,1763,5678,1775,5675,1780C5672,1785,5675,1792,5681,1796C5689,1800,5690,1799,5686,1792C5682,1785,5684,1780,5691,1780C5707,1780,5683,1752,5645,1728C5620,1712,5619,1710,5639,1715C5655,1720,5660,1719,5656,1711C5651,1704,5655,1702,5667,1706C5680,1710,5678,1706,5660,1691C5645,1678,5642,1672,5652,1676C5666,1681,5668,1677,5664,1658C5661,1646,5658,1630,5656,1623C5655,1616,5645,1601,5634,1589L5615,1567L5643,1585C5671,1603,5680,1594,5658,1571C5647,1561,5649,1560,5665,1566C5685,1573,5685,1573,5666,1551C5649,1533,5649,1530,5663,1536C5691,1547,5682,1531,5648,1510C5630,1499,5620,1490,5626,1490C5631,1490,5645,1497,5656,1505C5678,1522,5690,1524,5690,1510C5690,1505,5678,1494,5663,1486C5647,1478,5639,1471,5643,1470C5648,1470,5660,1475,5671,1480C5684,1487,5690,1487,5690,1481C5690,1475,5673,1461,5653,1450C5632,1438,5624,1432,5635,1436C5684,1452,5693,1453,5686,1442C5682,1435,5659,1425,5634,1419C5609,1413,5591,1405,5594,1403C5596,1401,5614,1403,5634,1408C5670,1418,5688,1405,5653,1394C5643,1391,5626,1384,5615,1379C5600,1373,5602,1372,5624,1377C5644,1381,5651,1380,5646,1371C5636,1356,5578,1357,5558,1373C5548,1380,5540,1407,5537,1445C5535,1478,5520,1533,5506,1568C5482,1626,5480,1636,5489,1688C5504,1769,5507,1819,5498,1814C5494,1811,5490,1814,5490,1819C5490,1825,5496,1830,5503,1831C5511,1831,5511,1833,5504,1836C5497,1839,5494,1849,5497,1860C5501,1876,5511,1878,5556,1877C5593,1876,5611,1879,5615,1889C5618,1896,5627,1899,5636,1896C5645,1892,5664,1900,5682,1915C5717,1945,5717,1945,5717,1923Z" transform="matrix(1 0 0 1 -4492.35205 1192.08447)" fill="rgb(202, 202, 202)" stroke="none" stroke-width="1"/></g></svg>